<?xml version="1.0" encoding="UTF-8"?>
<svg width="40px" height="40px" viewBox="0 0 40 40" version="1.1" xmlns="http://www.w3.org/2000/svg" xmlns:xlink="http://www.w3.org/1999/xlink">
    <title>xmark</title>
    <g id="xmark" stroke="none" stroke-width="1" fill="none" fill-rule="evenodd">
        <rect id="矩形" fill="#000000" fill-rule="nonzero" opacity="0" x="9" y="9" width="22" height="22"></rect>
        <path d="M27.1316667,13.84 C27.26,13.6933333 27.3241667,13.5283333 27.3241667,13.345 C27.3241667,13.1616667 27.26,13.0027778 27.1316667,12.8683333 C26.9972222,12.7216667 26.8352778,12.6483333 26.6458333,12.6483333 C26.4563889,12.6483333 26.2944444,12.7216667 26.16,12.8683333 L20,19.0283333 L13.84,12.8683333 C13.7055556,12.7216667 13.5436111,12.6483333 13.3541667,12.6483333 C13.1647222,12.6483333 12.9966667,12.7216667 12.85,12.8683333 C12.7338889,13.0027778 12.6758333,13.1616667 12.6758333,13.345 C12.6758333,13.5283333 12.7338889,13.6933333 12.85,13.84 L19.0283333,20 L12.85,26.1416667 C12.7338889,26.2883333 12.6758333,26.4563889 12.6758333,26.6458333 C12.6758333,26.8352778 12.7338889,26.9972222 12.85,27.1316667 C12.9966667,27.2477778 13.1647222,27.3088889 13.3541667,27.315 C13.5436111,27.3211111 13.7055556,27.26 13.84,27.1316667 L20,20.9716667 L26.16,27.1316667 C26.2944444,27.26 26.4563889,27.3241667 26.6458333,27.3241667 C26.8352778,27.3241667 26.9972222,27.26 27.1316667,27.1316667 C27.26,26.9972222 27.3241667,26.8352778 27.3241667,26.6458333 C27.3241667,26.4563889 27.26,26.2883333 27.1316667,26.1416667 L20.9716667,20 L27.1316667,13.84 Z" id="路径" fill-opacity="0.90196079" fill="#000000" fill-rule="nonzero"></path>
    </g>
</svg>